<svg viewBox="0 0 800 800" xmlns="http://www.w3.org/2000/svg"><path d="M735.1767361294685,188.16457689668334 L739.4284526984462,204.38985228710112 M739.4284526984462,204.38985228710112 L744.0166388338159,213.16191627237242 M744.0166388338159,213.16191627237242 L748.606069236911,209.68692648243746 M748.606069236911,209.68692648243746 L752.861161473561,198.36435585398175 M752.861161473561,198.36435585398175 L735.1767361294685,188.16457689668334 M735.1767361294685,188.16457689668334 L712.5321947442842,202.2200088736667 M712.5321947442842,202.2200088736667 L689.6559168256842,214.83534966193588 M689.6559168256842,214.83534966193588 L660.4895417766269,229.35257401436633 M660.4895417766269,229.35257401436633 L623.5843698623147,246.51265220269306 M623.5843698623147,246.51265220269306 L575.8729295891537,268.81938568183375 M575.8729295891537,268.81938568183375 L529.5999674014552,291.2669405720255 M529.5999674014552,291.2669405720255 L480.51192301717185,316.3134131178102 M480.51192301717185,316.3134131178102 L426.04196196334675,345.46067500946606 M426.04196196334675,345.46067500946606 L358.7334791231834,382.73857787993586 M358.7334791231834,382.73857787993586 L301.8120137425388,415.54368849957734 M301.8120137425388,415.54368849957734 L262.09313243765837,439.59864101987034 M262.09313243765837,439.59864101987034 L227.1499223076152,462.1725662459236 M227.1499223076152,462.1725662459236 L197.39039336123994,482.9077919337269 M197.39039336123994,482.9077919337269 L161.52011818577046,509.2890437053452 M161.52011818577046,509.2890437053452 L114.46336759135636,543.6380608957617 M114.46336759135636,543.6380608957617 L89.86538095245993,560.7598669577969 M89.86538095245993,560.7598669577969 L68.38936282107642,575.3073670322137 M68.38936282107642,575.3073670322137 L57.61319172309237,582.487565503081 M57.61319172309237,582.487565503081 L47.13883852643909,589.3994813830581 M47.13883852643909,589.3994813830581 L52.06762005356916,609.1608632679948 M739.4284526984462,204.38985228710112 L699.6868973696842,224.84848622083632 M699.6868973696842,224.84848622083632 L659.9183833381427,244.22856827034332 M659.9183833381427,244.22856827034332 L606.732307658805,269.91012083320817 M606.732307658805,269.91012083320817 L555.1002081750073,295.62814465350766 M555.1002081750073,295.62814465350766 L504.1370818793299,321.92551462714255 M504.1370818793299,321.92551462714255 L452.4706065573313,349.5281754462394 M452.4706065573313,349.5281754462394 L394.7691228320816,381.3322476658823 M394.7691228320816,381.3322476658823 L348.814344700887,407.47078935047807 M348.814344700887,407.47078935047807 L316.358055302995,426.5780480959229 M316.358055302995,426.5780480959229 L284.72699343142307,445.8908356790379 M284.72699343142307,445.8908356790379 L245.42968870040016,471.0367281651917 M245.42968870040016,471.0367281651917 L215.68648680555256,491.07440100773124 M215.68648680555256,491.07440100773124 L175.41420268855236,519.5205761023732 M175.41420268855236,519.5205761023732 L98.59448063437537,574.9430635512903 M98.59448063437537,574.9430635512903 L75.0139273413734,592.0929793133564 M75.0139273413734,592.0929793133564 L52.06762005356916,609.1608632679948 M52.06762005356916,609.1608632679948 L53.2682256465107,611.8354231033167 M744.0166388338159,213.16191627237242 L725.5670214239364,228.2905619729031 M725.5670214239364,228.2905619729031 L707.0041341886653,242.06722447000976 M707.0041341886653,242.06722447000976 L683.4095587573684,258.0495480949274 M683.4095587573684,258.0495480949274 L653.0260123352477,277.16875778321923 M653.0260123352477,277.16875778321923 L555.8656408886856,336.5205762129551 M555.8656408886856,336.5205762129551 L473.3567688469885,385.5346426087332 M473.3567688469885,385.5346426087332 L371.69143957288145,445.24648629204023 M371.69143957288145,445.24648629204023 L299.834843958512,485.90240561045334 M299.834843958512,485.90240561045334 L217.78436639427974,531.6172786321097 M217.78436639427974,531.6172786321097 L161.26033467367137,562.682401689759 M161.26033467367137,562.682401689759 L127.87587850362968,580.1722430393733 M127.87587850362968,580.1722430393733 L99.30014027589937,593.9254643361478 M99.30014027589937,593.9254643361478 L76.24050929333214,603.6956450869345 M76.24050929333214,603.6956450869345 L53.2682256465107,611.8354231033167 M53.2682256465107,611.8354231033167 L54.39842503892618,610.5624873443477 M748.606069236911,209.68692648243746 L720.4666762743238,236.86869511843508 M720.4666762743238,236.86869511843508 L692.0366884945753,262.8479475243803 M692.0366884945753,262.8479475243803 L652.5192603868923,296.530146714411 M652.5192603868923,296.530146714411 L611.7014000890556,328.6291791884631 M611.7014000890556,328.6291791884631 L568.8565289225054,359.7677215951728 M568.8565289225054,359.7677215951728 L522.8649703776642,390.80985522711603 M522.8649703776642,390.80985522711603 L468.95933629717575,424.9853290281035 M468.95933629717575,424.9853290281035 L423.97131617841353,451.81218300922944 M423.97131617841353,451.81218300922944 L390.52769926962554,470.4218391938988 M390.52769926962554,470.4218391938988 L356.16728335917327,488.2025610104248 M356.16728335917327,488.2025610104248 L310.797442188634,509.84680258755543 M310.797442188634,509.84680258755543 L274.35153778361484,525.9713282356529 M274.35153778361484,525.9713282356529 L222.37012632619775,547.5262649481663 M222.37012632619775,547.5262649481663 L119.8737560606387,587.6994426762716 M119.8737560606387,587.6994426762716 L87.402128454739,599.5310695436107 M87.402128454739,599.5310695436107 L54.39842503892618,610.5624873443477 M54.39842503892618,610.5624873443477 L58.72265321121819,596.3595113184132 M752.861161473561,198.36435585398175 L736.0222282403458,215.78710284069672 M736.0222282403458,215.78710284069672 L719.2415360304973,231.9456721863881 M719.2415360304973,231.9456721863881 L697.9045758993964,251.0256807128912 M697.9045758993964,251.0256807128912 L670.4849840160682,273.7339865147001 M670.4849840160682,273.7339865147001 L633.4423127745464,302.3183898026589 M633.4423127745464,302.3183898026589 L595.3970845608751,329.6501668916451 M595.3970845608751,329.6501668916451 L552.4655409585332,358.4030959974001 M552.4655409585332,358.4030959974001 L502.21471710993706,390.1569726051832 M502.21471710993706,390.1569726051832 L437.77920859566547,429.3020263704291 M437.77920859566547,429.3020263704291 L380.7755774130813,462.21554435940925 M380.7755774130813,462.21554435940925 L338.7115163588288,484.9935149023636 M338.7115163588288,484.9935149023636 L299.11036145796004,504.9011372023605 M299.11036145796004,504.9011372023605 L262.6739860303918,521.7470873789038 M262.6739860303918,521.7470873789038 L215.9311636597344,541.7379728439616 M215.9311636597344,541.7379728439616 L153.33506409225384,566.8928781741046 M153.33506409225384,566.8928781741046 L120.4007465542852,579.0568006020918 M120.4007465542852,579.0568006020918 L90.47215715695154,588.5577320444161 M90.47215715695154,588.5577320444161 L74.71595932096312,592.7567974192458 M74.71595932096312,592.7567974192458 L58.72265321121819,596.3595113184132 M58.72265321121819,596.3595113184132 L47.13883852643909,589.3994813830581" stroke="black"  stroke-width="4"  fill="red"/></svg>