<svg viewBox="0 0 800 800" xmlns="http://www.w3.org/2000/svg"><path d="M740.6383284933652,191.89992309470625 L739.9172707193827,193.7261243724128 M739.9172707193827,193.7261243724128 L738.1356130124825,197.99426096966215 M738.1356130124825,197.99426096966215 L736.9667483478473,200.8284771014134 M736.9667483478473,200.8284771014134 L732.7705450218389,210.34199537005054 M732.7705450218389,210.34199537005054 L721.8221583336717,231.96767231299623 M721.8221583336717,231.96767231299623 L709.7789234288283,251.40346046148937 M709.7789234288283,251.40346046148937 L695.6901229563342,270.32783931811605 M695.6901229563342,270.32783931811605 L679.0977287073993,289.19918304192964 M679.0977287073993,289.19918304192964 L659.6073973234949,308.29723204610787 M659.6073973234949,308.29723204610787 L635.9179073061431,328.6542746170654 M635.9179073061431,328.6542746170654 L606.7259712026519,351.1055725075745 M606.7259712026519,351.1055725075745 L567.8343917383046,378.8813440054238 M567.8343917383046,378.8813440054238 L522.1959757873805,409.69533690694516 M522.1959757873805,409.69533690694516 L477.54428526434003,437.9796862967162 M477.54428526434003,437.9796862967162 L434.38374581681217,463.5364695901344 M434.38374581681217,463.5364695901344 L392.88803752400287,486.1972249340207 M392.88803752400287,486.1972249340207 L347.73178420509174,508.93202939503897 M347.73178420509174,508.93202939503897 L297.37197085801336,532.4282498540158 M297.37197085801336,532.4282498540158 L240.29762869764608,557.1944823140286 M240.29762869764608,557.1944823140286 L208.1706274346685,569.7439900821594 M208.1706274346685,569.7439900821594 L176.69914471463196,580.1874231530888 M176.69914471463196,580.1874231530888 L141.2917322022841,589.9648784037291 M141.2917322022841,589.9648784037291 L96.9407628997277,600.1410822450863 M96.9407628997277,600.1410822450863 L56.78211456084989,608.1000769052938 M56.78211456084989,608.1000769052938 L56.781904580232776,608.0999508555661 M743.2180954197672,193.389352224111 L740.3401916906457,193.97032422842528 M740.3401916906457,193.97032422842528 L734.5070897559241,195.8985728754041 M734.5070897559241,195.8985728754041 L730.0402688325438,196.8273484142294 M730.0402688325438,196.8273484142294 L716.3840568804025,200.8707978146785 M716.3840568804025,200.8707978146785 L685.2103999683094,210.77809034377998 M685.2103999683094,210.77809034377998 L657.4414887591539,221.07403202819432 M657.4414887591539,221.07403202819432 L630.4942658659745,232.4979121118476 M630.4942658659745,232.4979121118476 L603.5412324238716,245.297632294646 M603.5412324238716,245.297632294646 L575.9083322208638,259.5936785065081 M575.9083322208638,259.5936785065081 L545.6026756725134,276.01502818935444 M545.6026756725134,276.01502818935444 L510.33080704980677,294.8167382577332 M510.33080704980677,294.8167382577332 L464.6087647763586,318.45862177186063 M464.6087647763586,318.45862177186063 L413.59784793164965,345.9534128020606 M413.59784793164965,345.9534128020606 L366.5176065096526,372.6431874505821 M366.5176065096526,372.6431874505821 L323.7346220346681,398.2643470125722 M323.7346220346681,398.2643470125722 L285.56798057024923,422.74716655686257 M285.56798057024923,422.74716655686257 L247.01166761320945,449.2443167673638 M247.01166761320945,449.2443167673638 L206.8335540162788,478.63862451344676 M206.8335540162788,478.63862451344676 L164.01961291242205,511.7511301168672 M164.01961291242205,511.7511301168672 L141.19657346615173,529.7837806795694 M141.19657346615173,529.7837806795694 L120.66805236371101,546.7101964940475 M120.66805236371101,546.7101964940475 L99.8780908962666,565.1850754910214 M99.8780908962666,565.1850754910214 L76.3970560069688,587.8274685010513 M76.3970560069688,587.8274685010513 L56.781904580232776,608.0999508555661 M740.6383284933652,191.89992309470625 L743.2180954197672,193.389352224111 M740.6383284933652,191.89992309470625 L743.2180954197672,193.389352224111 M743.2180954197672,193.389352224111 L740.6383284933652,191.89992309470625" stroke="black"  stroke-width="4"  fill="red"/></svg>