<svg viewBox="0 0 800 800" xmlns="http://www.w3.org/2000/svg"><path d="M748.6957286488199,187.19429467405087 L704.501106962562,239.5190657849455 M748.6957286488199,187.19429467405087 L714.9916701074511,205.4784746044918 M714.9916701074511,205.4784746044918 L670.4658472038362,231.14732657244417 M670.4658472038362,231.14732657244417 L633.2725045494199,252.25085408461746 M633.2725045494199,252.25085408461746 L591.6793013926117,274.4329036721938 M591.6793013926117,274.4329036721938 L541.8063104196393,300.26630297143873 M541.8063104196393,300.26630297143873 L506.30769093546286,319.0570943423069 M506.30769093546286,319.0570943423069 L469.81709614098025,339.0751994262391 M469.81709614098025,339.0751994262391 L432.41293881364163,360.06891321874883 M432.41293881364163,360.06891321874883 L394.2045532281144,381.6654163817916 M394.2045532281144,381.6654163817916 L354.9851852641636,404.20529145790726 M354.9851852641636,404.20529145790726 L321.06765076404986,424.7917679557588 M321.06765076404986,424.7917679557588 L291.0906598846883,444.5127235867375 M291.0906598846883,444.5127235867375 L256.3316104568952,469.1085008473648 M256.3316104568952,469.1085008473648 L208.4139180886223,504.008743859977 M208.4139180886223,504.008743859977 L169.2396585148769,531.5943461544407 M169.2396585148769,531.5943461544407 L134.83266680161853,554.6843684837702 M134.83266680161853,554.6843684837702 L105.77430596155193,573.2116775158896 M105.77430596155193,573.2116775158896 L78.5551232813898,590.4383898282191 M78.5551232813898,590.4383898282191 L52.22737564869203,608.5085261300541 M52.22737564869203,608.5085261300541 L80.13972545625381,611.4686572911817 M80.13972545625381,611.4686572911817 L102.85485554180036,594.456193018114 M102.85485554180036,594.456193018114 L126.52623063260648,578.3107076542784 M126.52623063260648,578.3107076542784 L161.6540437167295,555.7881268089517 M161.6540437167295,555.7881268089517 L201.42825868607508,530.2869288331492 M201.42825868607508,530.2869288331492 L239.00394393578628,504.70834825106465 M239.00394393578628,504.70834825106465 L276.9225251624904,478.42700174654556 M276.9225251624904,478.42700174654556 L306.4972166718843,458.6139436786689 M306.4972166718843,458.6139436786689 L339.9475710118294,437.3770459292176 M339.9475710118294,437.3770459292176 L377.15826284885316,414.8486354434125 M377.15826284885316,414.8486354434125 L419.0097677468705,390.40986410606104 M419.0097677468705,390.40986410606104 L457.54681103834776,368.5929157493958 M457.54681103834776,368.5929157493958 L492.1659269844706,349.6886992232329 M492.1659269844706,349.6886992232329 L524.5357223420783,332.69815933585835 M524.5357223420783,332.69815933585835 L561.705071452957,313.8799223523232 M561.705071452957,313.8799223523232 L626.3569987771646,281.26046264466015 M626.3569987771646,281.26046264466015 L666.112005059907,260.21643679538363 M666.112005059907,260.21643679538363 L685.169261628809,249.90603244351308 M685.169261628809,249.90603244351308 L704.501106962562,239.5190657849455 M52.22737564869203,608.5085261300541 L51.30427135118009,608.4449846394928 M748.0250487413812,186.92707147840707 L715.1907277567293,204.64670128956237 M715.1907277567293,204.64670128956237 L671.8671068613721,229.58889720640843 M671.8671068613721,229.58889720640843 L633.7383055214966,251.28646877002728 M633.7383055214966,251.28646877002728 L592.7371388844642,273.21479306445474 M592.7371388844642,273.21479306445474 L543.1243631198054,298.91422107513904 M543.1243631198054,298.91422107513904 L507.8666831728292,317.5223374692937 M507.8666831728292,317.5223374692937 L471.39780235604974,337.4776714173616 M471.39780235604974,337.4776714173616 L434.01218246554544,358.4347951405908 M434.01218246554544,358.4347951405908 L398.1369459871813,378.7041985927357 M398.1369459871813,378.7041985927357 L359.06961884083995,401.0538947674281 M359.06961884083995,401.0538947674281 L324.7215935704088,421.69849399242116 M324.7215935704088,421.69849399242116 L291.9641613105549,443.0588454847557 M291.9641613105549,443.0588454847557 L257.6716156348616,467.2532975768263 M257.6716156348616,467.2532975768263 L211.04540718740736,501.2601443266974 M211.04540718740736,501.2601443266974 L170.65975978620642,529.8210375527627 M170.65975978620642,529.8210375527627 L136.0335027661373,553.1377184368548 M136.0335027661373,553.1377184368548 L104.9816544747963,572.981013721032 M104.9816544747963,572.981013721032 L77.69315287616462,590.2784482678085 M77.69315287616462,590.2784482678085 L51.30427135118009,608.4449846394928 M748.6957286488199,187.19429467405087 L748.0250487413812,186.92707147840707 M51.30427135118009,608.4449846394928 L79.2154977574296,611.4257841264006 M703.9074460371421,239.3364119177291 L679.3670068603407,252.3844470608244 M679.3670068603407,252.3844470608244 L638.1160397012435,274.4800727555144 M638.1160397012435,274.4800727555144 L609.72424477614,289.1277421472734 M609.72424477614,289.1277421472734 L542.1797854810859,323.031029327105 M542.1797854810859,323.031029327105 L512.1535693341154,338.40875993051077 M512.1535693341154,338.40875993051077 L478.14865130229697,356.5213079624005 M478.14865130229697,356.5213079624005 L442.22978872127925,376.4255718852178 M442.22978872127925,376.4255718852178 L403.27572850427026,398.7550587731914 M403.27572850427026,398.7550587731914 L366.9023878789244,420.1946359193357 M366.9023878789244,420.1946359193357 L331.3267048572593,441.94493628048986 M331.3267048572593,441.94493628048986 L300.5285143273939,461.6942080167279 M300.5285143273939,461.6942080167279 L268.775902984991,483.17422482223355 M268.775902984991,483.17422482223355 L231.256533126382,509.246369578344 M231.256533126382,509.246369578344 L193.07834707120205,534.9946840921381 M193.07834707120205,534.9946840921381 L137.49749713443123,570.3982635186717 M137.49749713443123,570.3982635186717 L111.01921672728383,587.9683583196369 M111.01921672728383,587.9683583196369 L94.86149493162588,599.4500933819618 M94.86149493162588,599.4500933819618 L79.2154977574296,611.4257841264006 M748.0250487413812,186.92707147840707 L703.9074460371421,239.3364119177291 M80.13972545625381,611.4686572911817 L79.2154977574296,611.4257841264006 M704.501106962562,239.5190657849455 L703.9074460371421,239.3364119177291" stroke="black"  stroke-width="4"  fill="red"/>
<path d="M704.5844486208831,239.88180346360497 L686.688350334394,249.08790661522954 M686.688350334394,249.08790661522954 L664.5358222949508,260.89500216900353 M664.5358222949508,260.89500216900353 L626.1637814940491,280.9310587946182 M626.1637814940491,280.9310587946182 L586.0261361485141,300.9651313132256 M586.0261361485141,300.9651313132256 L531.1793795444571,328.21071467756315 M531.1793795444571,328.21071467756315 L502.2612626030664,343.1084679258539 M502.2612626030664,343.1084679258539 L467.9669026393884,361.5272339775919 M467.9669026393884,361.5272339775919 L431.4464602068881,381.9270286455393 M431.4464602068881,381.9270286455393 L391.3622047927764,405.05848514601894 M391.3622047927764,405.05848514601894 L352.8628998990698,427.9844774277153 M352.8628998990698,427.9844774277153 L318.97191981225876,449.04728358449904 M318.97191981225876,449.04728358449904 L288.683464173101,468.8781207121557 M288.683464173101,468.8781207121557 L256.0601233886214,491.29789882268165 M256.0601233886214,491.29789882268165 L214.8812579143243,519.8561931723087 M214.8812579143243,519.8561931723087 L170.05947400958615,549.325762184622 M170.05947400958615,549.325762184622 L129.79967318575484,575.3251443379603 M129.79967318575484,575.3251443379603 L104.38731068264133,592.7762056907999 M104.38731068264133,592.7762056907999 L88.22616939601926,604.8709950406615 M88.22616939601926,604.8709950406615 L80.19065591008507,611.8127998892028 M80.19065591008507,611.8127998892028 L80.05944001322734,613.072928521593 M704.730752149874,240.9521508929409 L698.7101472830296,248.7742938920032 M698.7101472830296,248.7742938920032 L693.8474174547615,254.59241672594692 M693.8474174547615,254.59241672594692 L688.3892657453245,260.4928212057316 M688.3892657453245,260.4928212057316 L682.5459147303173,266.189657828616 M682.5459147303173,266.189657828616 L672.141564962954,275.11028108488546 M672.141564962954,275.11028108488546 L659.498222861582,284.5249523067572 M659.498222861582,284.5249523067572 L621.314415042833,310.103199173232 M621.314415042833,310.103199173232 L575.5820971942052,339.8958969269852 M575.5820971942052,339.8958969269852 L520.4821194606266,374.7303106643468 M520.4821194606266,374.7303106643468 L463.4734771281699,409.365836243687 M463.4734771281699,409.365836243687 L405.12180814441484,443.3345969482949 M405.12180814441484,443.3345969482949 L340.56481432435424,479.4948372244355 M340.56481432435424,479.4948372244355 L227.3309284068179,541.6554422167042 M227.3309284068179,541.6554422167042 L180.40650004883938,567.9643106862512 M180.40650004883938,567.9643106862512 L153.38161834832354,582.4259366111075 M153.38161834832354,582.4259366111075 L130.45828918007578,593.604555121494 M130.45828918007578,593.604555121494 L109.14829636788636,602.6942604136568 M109.14829636788636,602.6942604136568 L94.60094736446501,608.0247542534355 M94.60094736446501,608.0247542534355 L80.05944001322734,613.072928521593 M704.5844486208831,239.88180346360497 L704.730752149874,240.9521508929409 M80.19065591008507,611.8127998892028 L79.2154977574296,611.4257841264006 M703.9074460371421,239.3364119177291 L679.3670068603407,252.3844470608244 M679.3670068603407,252.3844470608244 L638.1160397012435,274.4800727555144 M638.1160397012435,274.4800727555144 L609.72424477614,289.1277421472734 M609.72424477614,289.1277421472734 L542.1797854810859,323.031029327105 M542.1797854810859,323.031029327105 L512.1535693341154,338.40875993051077 M512.1535693341154,338.40875993051077 L478.14865130229697,356.5213079624005 M478.14865130229697,356.5213079624005 L442.22978872127925,376.4255718852178 M442.22978872127925,376.4255718852178 L403.27572850427026,398.7550587731914 M403.27572850427026,398.7550587731914 L366.9023878789244,420.1946359193357 M366.9023878789244,420.1946359193357 L331.3267048572593,441.94493628048986 M331.3267048572593,441.94493628048986 L300.5285143273939,461.6942080167279 M300.5285143273939,461.6942080167279 L268.775902984991,483.17422482223355 M268.775902984991,483.17422482223355 L231.256533126382,509.246369578344 M231.256533126382,509.246369578344 L193.07834707120205,534.9946840921381 M193.07834707120205,534.9946840921381 L137.49749713443123,570.3982635186717 M137.49749713443123,570.3982635186717 L111.01921672728383,587.9683583196369 M111.01921672728383,587.9683583196369 L94.86149493162588,599.4500933819618 M94.86149493162588,599.4500933819618 L79.2154977574296,611.4257841264006 M704.5844486208831,239.88180346360497 L703.9074460371421,239.3364119177291 M79.2154977574296,611.4257841264006 L79.23843389769047,612.5778543739748 M703.9090309894717,240.47750754772693 L696.2786111769122,250.62535875169044 M696.2786111769122,250.62535875169044 L688.3268159146237,259.59831433014364 M688.3268159146237,259.59831433014364 L678.9247486923729,268.65230019583134 M678.9247486923729,268.65230019583134 L667.9624641140342,277.71687135367864 M667.9624641140342,277.71687135367864 L654.2563822947059,287.67964722322165 M654.2563822947059,287.67964722322165 L611.4991105915918,316.5196495060504 M611.4991105915918,316.5196495060504 L568.8246710921785,344.5229315037179 M568.8246710921785,344.5229315037179 L517.0485854586987,377.3578706419702 M517.0485854586987,377.3578706419702 L460.82006168080886,411.54912693642314 M460.82006168080886,411.54912693642314 L402.64874533896875,445.4174774324248 M402.64874533896875,445.4174774324248 L337.7756175857903,481.75398358237123 M337.7756175857903,481.75398358237123 L223.31153268294318,544.5243542654258 M223.31153268294318,544.5243542654258 L175.3506406762381,571.1233727432434 M175.3506406762381,571.1233727432434 L150.68259974145218,584.0382940528883 M150.68259974145218,584.0382940528883 L125.7181944771927,595.8580224702996 M125.7181944771927,595.8580224702996 L104.93420226109419,604.3347577478191 M104.93420226109419,604.3347577478191 L92.08073283605097,608.8017861880659 M92.08073283605097,608.8017861880659 L79.23843389769047,612.5778543739748 M703.9074460371421,239.3364119177291 L703.9090309894717,240.47750754772693 M80.05944001322734,613.072928521593 L79.23843389769047,612.5778543739748 M704.730752149874,240.9521508929409 L703.9090309894717,240.47750754772693" stroke="black"  stroke-width="4"  fill="red"/></svg>